<svg width="800" height="500" viewBox="0 0 800 500" fill="none" xmlns="http://www.w3.org/2000/svg">
<rect width="800" height="500" rx="50" fill="#3479F8"/>
<path d="M82 183.756L106.023 175.043C149.828 159.157 198.4 163.317 238.865 186.421V186.421C267.983 203.046 301.616 210.025 334.944 206.358L377.38 201.689C392.007 200.08 406.232 195.889 419.396 189.313V189.313C451.444 173.302 488.838 171.876 522.013 185.4L556 199.256" stroke="white" stroke-width="26"/>
<path d="M82 252.756L106.023 244.043C149.828 228.157 198.4 232.317 238.865 255.421V255.421C267.983 272.046 301.616 279.025 334.944 275.358L377.38 270.689C392.007 269.08 406.232 264.889 419.396 258.313V258.313C451.444 242.302 488.838 240.876 522.013 254.4L556 268.256" stroke="white" stroke-width="26"/>
<path d="M82 321.756L106.023 313.043C149.828 297.157 198.4 301.317 238.865 324.421V324.421C267.983 341.046 301.616 348.025 334.944 344.358L377.38 339.689C392.007 338.08 406.232 333.889 419.396 327.313V327.313C451.444 311.302 488.838 309.876 522.013 323.4L556 337.256" stroke="white" stroke-width="26"/>
<path d="M610.487 353.658C608.965 353.015 607.7 351.884 606.892 350.443C606.084 349.002 605.779 347.333 606.024 345.7L619.561 257.565H583.638C582.499 257.596 581.368 257.364 580.333 256.889C579.297 256.413 578.385 255.706 577.667 254.822C576.948 253.938 576.442 252.901 576.188 251.79C575.933 250.68 575.938 249.526 576.2 248.417L598.513 151.73C598.905 150.066 599.859 148.588 601.214 147.545C602.568 146.501 604.241 145.957 605.95 146.003H680.325C681.436 145.999 682.534 146.244 683.538 146.72C684.542 147.197 685.426 147.892 686.126 148.755C686.836 149.627 687.339 150.65 687.597 151.745C687.854 152.84 687.86 153.979 687.614 155.076L674.747 212.94H710.075C711.469 212.937 712.836 213.326 714.019 214.063C715.203 214.799 716.155 215.853 716.769 217.105C717.302 218.307 717.507 219.628 717.363 220.934C717.219 222.241 716.732 223.486 715.951 224.543L619.263 350.98C618.61 351.949 617.737 352.75 616.716 353.318C615.696 353.887 614.555 354.207 613.388 354.253C612.392 354.234 611.409 354.032 610.487 353.658ZM656.153 227.815L671.028 160.878H611.9L593.009 242.69H636.964L625.139 319.148L695.2 227.815H656.153Z" fill="white"/>
</svg>
