<svg width="1000" height="520" viewBox="0 0 1000 520" fill="none" xmlns="http://www.w3.org/2000/svg">
<rect width="1000" height="520" rx="50" fill="#3479F8"/>
<path d="M144 193.756L168.023 185.043C211.828 169.157 260.4 173.317 300.865 196.421V196.421C329.983 213.046 363.616 220.025 396.944 216.358L439.38 211.689C454.007 210.079 468.232 205.889 481.396 199.313V199.313C513.444 183.302 550.838 181.876 584.013 195.4L618 209.256" stroke="white" stroke-width="26"/>
<path d="M144 262.756L168.023 254.043C211.828 238.157 260.4 242.317 300.865 265.421V265.421C329.983 282.046 363.616 289.025 396.944 285.358L439.38 280.689C454.007 279.079 468.232 274.889 481.396 268.313V268.313C513.444 252.302 550.838 250.876 584.013 264.4L618 278.256" stroke="white" stroke-width="26"/>
<path d="M144 331.756L168.023 323.043C211.828 307.157 260.4 311.317 300.865 334.421V334.421C329.983 351.046 363.616 358.025 396.944 354.358L439.38 349.689C454.007 348.079 468.232 343.889 481.396 337.313V337.313C513.444 321.302 550.838 319.876 584.013 333.4L618 347.256" stroke="white" stroke-width="26"/>
<path d="M704.487 363.657C702.965 363.015 701.7 361.884 700.892 360.443C700.084 359.002 699.779 357.333 700.024 355.699L713.561 267.565H677.638C676.499 267.596 675.368 267.364 674.333 266.889C673.297 266.413 672.385 265.706 671.667 264.822C670.948 263.938 670.442 262.901 670.188 261.79C669.933 260.68 669.938 259.525 670.2 258.417L692.513 161.729C692.905 160.065 693.859 158.587 695.214 157.544C696.568 156.501 698.241 155.957 699.95 156.002H774.325C775.436 155.999 776.534 156.244 777.538 156.72C778.542 157.196 779.426 157.891 780.126 158.754C780.836 159.627 781.339 160.649 781.597 161.744C781.854 162.839 781.86 163.979 781.614 165.076L768.747 222.94H804.075C805.469 222.937 806.836 223.326 808.019 224.063C809.203 224.799 810.155 225.853 810.769 227.105C811.302 228.306 811.507 229.628 811.363 230.934C811.219 232.241 810.732 233.486 809.951 234.542L713.263 360.98C712.61 361.949 711.737 362.75 710.716 363.318C709.696 363.887 708.555 364.207 707.388 364.252C706.392 364.234 705.409 364.032 704.487 363.657ZM750.153 237.815L765.028 170.877H705.9L687.009 252.69H730.964L719.139 329.147L789.2 237.815H750.153Z" fill="white"/>
</svg>
