<svg width="500" height="500" viewBox="0 0 500 500" fill="none" xmlns="http://www.w3.org/2000/svg">
<rect width="500" height="500" rx="50" fill="#3479F8"/>
<path d="M75 185.996L92.7157 179.553C125.067 167.787 160.959 170.866 190.832 187.972V187.972C212.328 200.28 237.174 205.448 261.794 202.731L293.104 199.276C303.906 198.084 314.411 194.982 324.127 190.114V190.114C347.789 178.259 375.418 177.203 399.915 187.219L425 197.474" stroke="white" stroke-width="26"/>
<path d="M75 251.908L92.7157 245.464C125.067 233.698 160.959 236.778 190.832 253.883V253.883C212.328 266.191 237.174 271.359 261.794 268.642L293.104 265.188C303.906 263.996 314.411 260.893 324.127 256.025V256.025C347.789 244.17 375.418 243.115 399.915 253.13L425 263.385" stroke="white" stroke-width="26"/>
<path d="M75 317.819L92.7157 311.376C125.067 299.61 160.959 302.689 190.832 319.795V319.795C212.328 332.103 237.174 337.27 261.794 334.554L293.104 331.099C303.906 329.907 314.411 326.805 324.127 321.937V321.937C347.789 310.082 375.418 309.026 399.915 319.041L425 329.297" stroke="white" stroke-width="26"/>
</svg>
