<svg width="500" height="500" viewBox="0 0 500 500" fill="none" xmlns="http://www.w3.org/2000/svg">
<rect width="500" height="500" rx="50" fill="#3479F8"/>
<path d="M213.487 353.658C211.965 353.015 210.7 351.884 209.892 350.443C209.084 349.002 208.779 347.333 209.024 345.7L222.561 257.565H186.638C185.499 257.596 184.368 257.364 183.333 256.889C182.297 256.413 181.385 255.706 180.667 254.822C179.948 253.938 179.442 252.901 179.188 251.79C178.933 250.68 178.938 249.526 179.2 248.417L201.513 151.73C201.905 150.066 202.859 148.588 204.214 147.545C205.568 146.501 207.241 145.957 208.95 146.003H283.325C284.436 145.999 285.534 146.244 286.538 146.72C287.542 147.197 288.426 147.892 289.126 148.755C289.836 149.627 290.339 150.65 290.597 151.745C290.854 152.84 290.86 153.979 290.614 155.076L277.747 212.94H313.075C314.469 212.937 315.836 213.326 317.019 214.063C318.203 214.799 319.155 215.853 319.769 217.105C320.302 218.307 320.507 219.628 320.363 220.934C320.219 222.241 319.732 223.486 318.951 224.543L222.263 350.98C221.61 351.949 220.737 352.75 219.716 353.318C218.696 353.887 217.555 354.207 216.388 354.253C215.392 354.234 214.409 354.032 213.487 353.658ZM259.153 227.815L274.028 160.878H214.9L196.009 242.69H239.964L228.139 319.148L298.2 227.815H259.153Z" fill="white"/>
</svg>
